<?xml version="1.0" encoding="UTF-8"?> <!-- Generator: Adobe Illustrator 23.0.4, SVG Export Plug-In . SVG Version: 6.00 Build 0) --> <svg xmlns="http://www.w3.org/2000/svg" xmlns:xlink="http://www.w3.org/1999/xlink" id="Layer_1" x="0px" y="0px" viewBox="0 0 85.5 41.6" style="enable-background:new 0 0 85.5 41.6;" xml:space="preserve"> <g> <path d="M13.4,7.4c-3.4,2.3-6,5.5-7.5,9.3l-0.5,1.4l22.9,0.1V4.1h-3.8C20.5,4.1,16.7,5.2,13.4,7.4z M26.3,16.1L8.4,16.1 c1.4-2.8,3.5-5.2,6.2-7c2.9-2,6.4-3,9.9-3h1.8V16.1z"></path> <path d="M33.1,0h-8.2c-7.2,0-14,3.1-18.7,8.5C2.2,13,0,18.9,0,24.9v10.6h10.4c0.5,3.1,3,5.7,6.3,6c0.2,0,0.5,0,0.7,0 c3.5,0,6.5-2.6,7-6.1h8.7h2h25.3c0.5,3.4,3.4,6.1,7,6.1s6.5-2.6,7-6.1h6.9v-3.4h4.2v-14v-2.1h-2H35.1V0H33.1z M16.9,39.5 c-2.8-0.3-4.8-2.8-4.6-5.5c0.3-2.8,2.7-4.8,5.5-4.6c2.8,0.3,4.8,2.8,4.6,5.5C22.1,37.8,19.7,39.8,16.9,39.5z M33.1,17.1v1v15.4 h-8.7c-0.5-3.1-3-5.7-6.3-6c-3.8-0.4-7.1,2.3-7.7,6H2v-8.6C2,19.4,4,14,7.7,9.8C12,4.8,18.3,2,24.9,2h8.2V17.1z M67.4,39.6 c-2.8,0-5.1-2.3-5.1-5.1s2.3-5.1,5.1-5.1s5.1,2.3,5.1,5.1S70.2,39.6,67.4,39.6z M83.5,30.1h-4.2v3.4h-4.9c-0.5-3.4-3.4-6.1-7-6.1 s-6.5,2.6-7,6.1H35.1V18.1h48.4V30.1z"></path> </g> </svg> 