<?xml version="1.0" encoding="UTF-8"?> <!-- Generator: Adobe Illustrator 23.0.4, SVG Export Plug-In . SVG Version: 6.00 Build 0) --> <svg xmlns="http://www.w3.org/2000/svg" xmlns:xlink="http://www.w3.org/1999/xlink" id="Layer_1" x="0px" y="0px" viewBox="0 0 131.62 48.56" style="enable-background:new 0 0 131.62 48.56;" xml:space="preserve"> <g> <path d="M31.09,0v8.47v2v0.4v18.89v1v1v8.15h52.43c-0.07,0.41-0.11,0.82-0.11,1.25c0,4.08,3.32,7.4,7.4,7.4s7.4-3.32,7.4-7.4 c0-0.43-0.04-0.84-0.11-1.25h10.46v-8.15h23.07V10.47v-2V0H31.09z M103.7,2h12.23v6.47H103.7V2z M89.47,2h12.23v6.47H89.47V2z M75.24,2h12.23v6.47H75.24V2z M61.01,2h12.23v6.47H61.01V2z M46.78,2h12.23v6.47H46.78V2z M33.09,2h11.69v6.47H33.09V2z M90.8,46.56c-2.98,0-5.4-2.42-5.4-5.4s2.42-5.4,5.4-5.4s5.4,2.42,5.4,5.4S93.78,46.56,90.8,46.56z M106.55,37.92h-9.11 c-1.21-2.45-3.72-4.15-6.64-4.15s-5.43,1.7-6.64,4.15H33.09v-6.15h73.45V37.92z M129.62,29.76h-21.07H33.09V10.88v-0.4h96.53V29.76 z M129.62,8.47h-11.69V2h11.69V8.47z"></path> <path d="M12.98,21.64h9.26V12.2H9.3L5.4,24.34h6.54L12.98,21.64z M10.57,22.34H8.14l2.62-8.14h9.48v5.44h-8.64L10.57,22.34z"></path> <path d="M18.86,33.77c-4.08,0-7.4,3.32-7.4,7.4s3.32,7.4,7.4,7.4s7.4-3.32,7.4-7.4S22.94,33.77,18.86,33.77z M18.86,46.56 c-2.98,0-5.4-2.42-5.4-5.4s2.42-5.4,5.4-5.4s5.4,2.42,5.4,5.4S21.84,46.56,18.86,46.56z"></path> <path d="M0,26.6v13.64h9.43l0.15-0.82c0.83-4.46,4.73-7.7,9.27-7.7l10.24,0.04V8.2H6.54L0,26.6z M27.09,10.2v19.56l-8.23-0.03 c-5.23,0-9.75,3.53-11.06,8.51H2v-11.3L7.95,10.2H27.09z"></path> </g> </svg> 