<?xml version="1.0" encoding="UTF-8"?> <!-- Generator: Adobe Illustrator 23.0.4, SVG Export Plug-In . SVG Version: 6.00 Build 0) --> <svg xmlns="http://www.w3.org/2000/svg" xmlns:xlink="http://www.w3.org/1999/xlink" id="Layer_1" x="0px" y="0px" viewBox="0 0 85.97 45.67" style="enable-background:new 0 0 85.97 45.67;" xml:space="preserve"> <g> <path d="M27.8,17.77V9.55h-8.7l-5.11,8.22H27.8z M20.21,11.55h5.59v4.22h-8.21L20.21,11.55z"></path> <path d="M83.14,25.04V0H32.68v5.67H16.77L9.17,17.9L0,24.14v15.34h6.92c0.49,3.49,3.49,6.19,7.11,6.19c0,0,0.01,0,0.01,0 c3.62-0.01,6.61-2.7,7.09-6.19h11.54h2H58.4c0.49,3.49,3.49,6.19,7.11,6.19c0,0,0.01,0,0.01,0c3.62-0.01,6.61-2.7,7.09-6.19h13.35 V25.04H83.14z M14.04,43.67c0,0-0.01,0-0.01,0c-2.85,0-5.18-2.32-5.19-5.18c-0.01-2.86,2.32-5.19,5.18-5.2c0,0,0.01,0,0.01,0 c2.85,0,5.18,2.32,5.19,5.18C19.22,41.33,16.9,43.66,14.04,43.67z M32.68,25.04v2v10.44H21.14c-0.49-3.49-3.49-6.19-7.11-6.19 c0,0-0.01,0-0.01,0C10.4,31.3,7.41,34,6.92,37.48H2V25.2l8.65-5.88l7.24-11.64h14.8V25.04z M34.68,5.67V2h46.45v23.04H34.68V5.67z M65.52,43.67c0,0-0.01,0-0.01,0c-2.85,0-5.18-2.32-5.19-5.18c-0.01-2.86,2.32-5.19,5.18-5.2c0,0,0.01,0,0.01,0 c2.85,0,5.18,2.32,5.19,5.18C70.71,41.33,68.38,43.66,65.52,43.67z M83.97,37.48H72.62c-0.49-3.49-3.49-6.19-7.11-6.19 c0,0-0.01,0-0.01,0c-3.62,0.01-6.61,2.7-7.09,6.19H34.68V27.04h48.45h0.83V37.48z"></path> </g> </svg> 