<?xml version="1.0" encoding="UTF-8"?> <!-- Generator: Adobe Illustrator 23.0.4, SVG Export Plug-In . SVG Version: 6.00 Build 0) --> <svg xmlns="http://www.w3.org/2000/svg" xmlns:xlink="http://www.w3.org/1999/xlink" id="Layer_1" x="0px" y="0px" viewBox="0 0 121.29 49.73" style="enable-background:new 0 0 121.29 49.73;" xml:space="preserve"> <g> <path d="M14.15,20.59h6.89v-7.16h-9.62l-5.97,9.86h6.77L14.15,20.59z M9,21.29l3.55-5.86h6.49v3.16h-5.92l-1.93,2.7H9z"></path> <path d="M18.9,34.95c-4.08,0-7.39,3.32-7.39,7.39s3.32,7.39,7.39,7.39s7.39-3.32,7.39-7.39S22.98,34.95,18.9,34.95z M18.9,47.73 c-2.97,0-5.39-2.42-5.39-5.39s2.42-5.39,5.39-5.39s5.39,2.42,5.39,5.39S21.88,47.73,18.9,47.73z"></path> <path d="M0,25.48v15.61h9.22l0.17-0.79c0.95-4.46,4.95-7.69,9.51-7.69h8.25V9.37H8.6L0,25.48z M25.15,11.37v19.24H18.9 c-5.23,0-9.84,3.52-11.27,8.48H2V25.98l7.79-14.61H25.15z"></path> <path d="M29.22,0v11.05v2v15.48v2v11.96h48.99c0.08,4,3.36,7.24,7.38,7.24c4.02,0,7.3-3.23,7.38-7.24h13.7V30.53h14.61V13.05v-2V0 H29.22z M91.26,2h13v9.05h-13V2z M76.26,2h13v9.05h-13V2z M61.26,2h13v9.05h-13V2z M46.26,2h13v9.05h-13V2z M31.22,2h13.03v9.05 H31.22V2z M85.6,47.73c-2.97,0-5.39-2.42-5.39-5.39s2.42-5.39,5.39-5.39s5.39,2.42,5.39,5.39S88.57,47.73,85.6,47.73z M104.68,40.49H92.74c-0.82-3.18-3.71-5.54-7.15-5.54c-3.44,0-6.32,2.36-7.15,5.54H31.22v-9.96h73.45V40.49z M119.29,28.53h-12.61 H31.22V13.05h88.07V28.53z M119.29,11.05h-13.03V2h13.03V11.05z"></path> </g> </svg> 