<?xml version="1.0" encoding="UTF-8"?> <!-- Generator: Adobe Illustrator 23.0.4, SVG Export Plug-In . SVG Version: 6.00 Build 0) --> <svg xmlns="http://www.w3.org/2000/svg" xmlns:xlink="http://www.w3.org/1999/xlink" id="Layer_1" x="0px" y="0px" viewBox="0 0 85.49 46.55" style="enable-background:new 0 0 85.49 46.55;" xml:space="preserve"> <g> <path d="M13.43,12.38c-3.42,2.27-6.01,5.49-7.51,9.3l-0.54,1.36l22.88,0.07V9.06h-3.83C20.51,9.06,16.7,10.21,13.43,12.38z M26.26,21.11L8.38,21.06c1.39-2.84,3.5-5.24,6.16-7.01c2.94-1.95,6.37-2.99,9.9-2.99h1.83V21.11z"></path> <path d="M33.1,0v4.98h-8.17c-7.18,0-14.01,3.09-18.74,8.49C2.2,18.02,0,23.86,0,29.91v10.57h10.38c0.45,3.15,3,5.71,6.31,6.03 c0.23,0.02,0.46,0.03,0.69,0.03c3.49,0,6.49-2.58,6.98-6.07h8.75h2h25.29c0.49,3.42,3.43,6.07,6.99,6.07s6.5-2.64,6.99-6.07h6.92 v-3.37h4.21v-14v-2.06V0H33.1z M16.87,44.52c-2.78-0.27-4.82-2.75-4.55-5.53c0.27-2.78,2.75-4.83,5.53-4.55 c2.78,0.27,4.82,2.75,4.55,5.53C22.14,42.75,19.65,44.79,16.87,44.52z M33.1,22.11v1v15.37h-8.75c-0.45-3.15-3-5.71-6.3-6.03 c-3.77-0.36-7.14,2.32-7.67,6.03H2v-8.57c0-5.57,2.02-10.94,5.69-15.12c4.35-4.96,10.63-7.81,17.24-7.81h8.17V22.11z M67.38,44.55 c-2.79,0-5.07-2.27-5.07-5.07s2.27-5.07,5.07-5.07s5.07,2.27,5.07,5.07S70.17,44.55,67.38,44.55z M83.49,35.11h-4.21v3.37h-4.92 c-0.49-3.42-3.43-6.07-6.99-6.07s-6.5,2.64-6.99,6.07H35.1V23.11h48.39V35.11z M83.49,21.05H35.1V4.98V2h48.39V21.05z"></path> </g> </svg> 