<?xml version="1.0" encoding="UTF-8"?> <!-- Generator: Adobe Illustrator 23.0.4, SVG Export Plug-In . SVG Version: 6.00 Build 0) --> <svg xmlns="http://www.w3.org/2000/svg" xmlns:xlink="http://www.w3.org/1999/xlink" id="Layer_1" x="0px" y="0px" viewBox="0 0 112.8 41.5" style="enable-background:new 0 0 112.8 41.5;" xml:space="preserve"> <g> <path d="M31.8,8.6L19,17h26.5V6.2h-5.9C36.8,6.2,34.1,7,31.8,8.6z M43.5,15H25.7l7.2-4.8c2-1.4,4.2-2.1,6.6-2.1h3.9 C43.5,8.2,43.5,15,43.5,15z"></path> <path d="M56.6,2.9c-0.7-0.5-1.6-0.8-2.5-0.8H39c-3,0-6,0.9-8.5,2.5l-12.8,8.3L5.6,14.1c-3.2,0.3-5.6,3-5.6,6.2v13.5h8.4 c0.2,1.6,0.8,3.2,1.9,4.5c1.5,1.8,3.5,2.9,5.8,3.1c0.3,0,0.6,0,0.8,0c2,0,3.9-0.7,5.5-2c1.7-1.4,2.8-3.4,3.1-5.6h50.4 c0.2,1.6,0.8,3.2,1.9,4.5c1.5,1.8,3.5,2.9,5.8,3.1c0.3,0,0.6,0,0.8,0c2,0,3.9-0.7,5.5-2c1.7-1.4,2.8-3.4,3.1-5.6h19.9V12.1H105 H58.6V5.3C58.6,4,56.6,2.9,56.6,2.9z M23.5,33.5c-0.2,1.8-1,3.3-2.4,4.5c-1.4,1.1-3.1,1.6-4.8,1.5c-1.8-0.2-3.3-1-4.5-2.4 c-1.1-1.4-1.6-3.1-1.5-4.8c0.2-1.8,1-3.3,2.4-4.5c1.2-1,2.7-1.5,4.2-1.5c0.2,0,0.4,0,0.6,0c1.8,0.2,3.3,1,4.5,2.4 C23.1,30.1,23.6,31.8,23.5,33.5z M56.5,14.1v17.8h-31c-0.2-1.6-0.8-3.2-1.9-4.5c-1.5-1.8-3.5-2.9-5.8-3.1c-4.7-0.5-8.8,2.9-9.4,7.6 H2V20.4c0-2.2,1.7-4,3.8-4.2l12.6-1.3l13.2-8.5c2.2-1.4,4.8-2.2,7.4-2.2h15.1c1.3,0,2.4,1.1,2.4,2.4V14.1z M90.9,33.5 c-0.2,1.8-1,3.3-2.4,4.5c-1.4,1.1-3.1,1.6-4.8,1.5c-1.8-0.2-3.3-1-4.5-2.4c-1.1-1.4-1.6-3.1-1.5-4.8c0.3-3.4,3.2-6,6.6-6 c0.2,0,0.4,0,0.6,0C88.6,26.7,91.3,29.9,90.9,33.5z M110.8,31.9H92.9c-0.2-1.6-0.8-3.2-1.9-4.5c-1.5-1.8-3.5-2.9-5.8-3.1 c-4.7-0.5-8.8,2.9-9.4,7.5H58.5V14.1H107h3.8V31.9z"></path> </g> </svg> 